<?xml version="1.0" encoding="UTF-8" standalone="no"?>
<svg width="176px" height="109px" viewBox="0 0 176 109" version="1.1" xmlns="http://www.w3.org/2000/svg" xmlns:xlink="http://www.w3.org/1999/xlink" xmlns:sketch="http://www.bohemiancoding.com/sketch/ns">
    <!-- Generator: Sketch 3.3.2 (12043) - http://www.bohemiancoding.com/sketch -->
    <title>Tell logo</title>
    <defs>
        <path id="path-1" d="M0.06,0.27 L175.084,0.27 L175.084,108.94 L0.06,108.94 L0.06,0.27 Z"></path>
    </defs>
    <g id="tell-logo" stroke="none" stroke-width="1" fill="none" fill-rule="evenodd" sketch:type="MSPage">
        <g id="tell_logo_gronn_cmyk" sketch:type="MSLayerGroup">
            <mask id="mask-2" sketch:name="Clip 2" fill="white">
                <use xlink:href="#path-1"></use>
            </mask>
            <g id="Clip-2"></g>
            <path d="M87.289,70.985 C87.084,68.108 84.619,63.381 79.48,62.764 C75.37,62.354 69.411,66.874 69.616,71.807 C73.726,72.012 83.384,71.19 87.289,70.985 L87.289,70.985 Z M68.999,77.971 C68.384,81.875 70.849,89.889 75.781,89.479 C77.835,89.274 80.097,88.247 81.947,89.069 C84.002,89.889 85.029,92.356 85.029,94.206 C85.029,95.438 85.234,96.672 84.824,97.7 C84.412,99.549 82.769,100.165 80.712,100.165 C75.987,100.165 72.082,97.495 69.616,95.643 C64.685,91.739 60.574,86.397 60.574,77.971 C60.574,66.668 66.122,55.573 78.658,55.573 C84.824,55.573 95.919,59.271 97.769,69.545 C99.209,69.34 100.646,68.93 102.085,68.313 C104.345,67.491 105.99,65.846 108.455,65.846 C112.566,65.846 113.798,69.957 113.798,72.217 C113.798,75.916 102.291,77.971 99.824,77.971 C88.523,78.381 79.892,77.971 68.999,77.971 L68.999,77.971 Z" id="Fill-1" fill="#1A9B46" sketch:type="MSShapeGroup" mask="url(#mask-2)"></path>
            <path d="M21.878,76.26 C23.221,86.77 24.312,102.17 32.589,109 C37.735,107.686 50.362,98.743 47.23,96.379 C43.874,93.75 36.646,96.489 34.854,97.54 C31.946,89.397 29.709,79.938 29.262,70.747 C28.966,58.439 28.963,57.568 29.317,54.476 L20.973,54.476 C20.981,62.784 21.257,71.303 21.878,76.26" id="Fill-3" fill="#1A9B46" sketch:type="MSShapeGroup" mask="url(#mask-2)"></path>
            <path d="M34.454,19.204 C37.421,8.435 43.204,0.8 35.153,0.274 C30.458,0.037 26.849,10.655 24.204,23.425 L33.272,23.425 C33.635,22.119 34.026,20.724 34.454,19.204" id="Fill-4" fill="#1A9B46" sketch:type="MSShapeGroup" mask="url(#mask-2)"></path>
            <path d="M0.06,23.425 L55.202,23.425 L55.202,54.476 L0.06,54.476 L0.06,23.425 Z" id="Fill-5" fill="#1A9B46" sketch:type="MSShapeGroup" mask="url(#mask-2)"></path>
            <path d="M122.906,46.599 C122.277,54.546 122.277,70.86 123.324,77.971 C124.58,86.338 125.833,99.725 133.574,105.163 C138.384,104.118 146.332,96.795 143.402,94.915 C140.265,92.823 137.128,94.077 135.455,94.915 C132.736,88.43 130.644,80.899 130.226,73.581 C129.808,58.729 130.017,64.795 131.062,53.917 L132.945,45.343 C134.139,38.32 135.98,30.563 138.076,23.419 L126.727,23.419 C124.609,32.892 123.367,42.535 122.906,46.599" id="Fill-6" fill="#1A9B46" sketch:type="MSShapeGroup" mask="url(#mask-2)"></path>
            <path d="M163.995,32.71 C164.504,29.715 165.144,26.58 165.86,23.419 L155.397,23.419 C154.68,27.956 154.205,31.774 153.956,33.966 C153.329,41.915 153.329,58.229 154.374,65.338 C155.629,73.707 156.883,87.092 164.624,92.53 C169.434,91.485 177.381,84.164 174.454,82.282 C171.317,80.19 168.178,81.446 166.506,82.282 C163.786,75.799 161.694,68.268 161.276,60.95 C160.858,46.097 161.067,52.165 162.114,41.286 L163.995,32.71" id="Fill-7" fill="#1A9B46" sketch:type="MSShapeGroup" mask="url(#mask-2)"></path>
        </g>
    </g>
</svg>